<?xml version="1.0" standalone="no"?>
<!DOCTYPE svg PUBLIC "-//W3C//DTD SVG 20010904//EN"
 "http://www.w3.org/TR/2001/REC-SVG-20010904/DTD/svg10.dtd">
<svg version="1.0" xmlns="http://www.w3.org/2000/svg"
 width="1890.000000pt" height="1417.000000pt" viewBox="0 0 1890.000000 1417.000000"
 preserveAspectRatio="xMidYMid meet">

<g transform="translate(0.000000,1417.000000) scale(0.100000,-0.100000)"
fill="#000000" stroke="none">
<path d="M2906 12189 c-46 -11 -88 -40 -115 -78 -18 -24 -160 -511 -176 -602
-4 -21 -1 -63 5 -94 10 -46 20 -66 55 -100 23 -24 56 -46 72 -49 l30 -7 -1
-82 c-1 -95 18 -143 75 -188 28 -22 1194 -352 7199 -2035 7789 -2183 7244
-2035 7335 -1988 74 38 88 68 165 344 39 140 76 276 81 302 23 104 -31 214
-122 255 l-41 18 6 46 c18 131 -50 228 -184 266 -761 219 -14267 3995 -14299
3998 -25 2 -63 0 -85 -6z m7259 -2369 c3888 -1089 7071 -1982 7073 -1985 2 -2
-20 -89 -49 -194 -37 -134 -57 -191 -67 -191 -21 0 -14226 3981 -14233 3988
-8 8 89 361 103 379 7 9 20 8 56 -2 26 -8 3228 -906 7117 -1995z"/>
<path d="M5151 9160 c-83 -20 -119 -70 -222 -309 l-83 -193 -17 54 c-10 29
-39 91 -64 138 -26 46 -62 114 -81 151 -40 78 -84 124 -133 141 -25 8 -157 13
-416 16 -405 4 -461 -1 -525 -42 -21 -14 -292 -350 -700 -869 -727 -925 -701
-887 -678 -990 14 -66 79 -132 138 -142 36 -6 40 -9 34 -28 -33 -103 -21 -171
42 -232 34 -33 54 -44 100 -53 75 -16 525 -16 596 -1 67 15 116 64 288 292
l125 166 45 0 c44 1 47 -1 59 -34 14 -40 81 -101 120 -110 26 -6 27 -7 23 -68
-6 -91 12 -144 63 -194 63 -60 100 -66 423 -59 147 2 274 5 282 5 8 0 114 -2
236 -5 169 -4 233 -2 275 8 43 11 64 12 104 2 68 -16 427 -18 496 -2 87 20
118 61 219 293 47 110 214 492 370 850 298 684 299 685 279 780 -12 52 -187
368 -221 397 -17 15 -54 32 -82 39 -66 14 -493 9 -520 -7 -14 -8 -30 -8 -64 2
-50 16 -450 18 -511 4z m367 -375 c-2 -8 -147 -346 -323 -750 l-320 -734 -148
-1 -147 0 13 33 c80 188 632 1445 639 1455 8 8 50 12 150 12 118 0 139 -2 136
-15z m600 0 c-2 -8 -147 -346 -323 -750 l-320 -734 -148 -1 -147 0 13 33 c80
188 632 1445 639 1455 8 8 50 12 150 12 118 0 139 -2 136 -15z m-2108 -11 c0
-9 -266 -390 -437 -627 -79 -109 -143 -200 -143 -202 0 -2 32 -5 70 -7 l70 -3
-50 -70 c-27 -38 -50 -75 -50 -82 0 -10 -24 -13 -87 -14 l-88 0 -158 -207
c-87 -114 -168 -219 -181 -235 l-22 -27 -171 2 -171 3 580 738 579 737 130 0
c71 0 129 -3 129 -6z m456 -51 c-3 -32 -31 -350 -61 -708 -31 -357 -58 -665
-61 -682 l-5 -33 -224 0 -225 0 1 43 c0 23 6 88 13 145 6 57 10 105 7 108 -2
2 -13 4 -24 4 -18 0 -19 5 -12 78 8 88 10 92 35 92 10 0 21 4 24 9 3 5 15 71
26 147 23 153 82 507 104 624 8 41 12 77 9 80 -3 3 -18 -11 -34 -30 -34 -40
-34 -36 -12 87 l16 93 215 0 215 0 -7 -57z"/>
<path d="M4427 6345 c-138 -22 -310 -71 -413 -116 -174 -76 -378 -228 -511
-380 -240 -275 -423 -699 -423 -981 0 -114 38 -251 98 -355 27 -48 76 -142
107 -208 50 -104 67 -129 129 -190 136 -134 303 -193 573 -202 172 -6 259 4
436 48 208 52 365 128 531 256 45 35 61 42 67 31 5 -7 9 -17 9 -23 0 -19 90
-129 132 -163 76 -60 124 -82 245 -114 107 -28 133 -31 268 -31 118 0 173 4
255 22 139 29 269 73 358 121 63 34 72 37 72 21 0 -34 81 -106 132 -119 69
-18 452 -16 511 2 40 12 54 12 94 0 59 -18 442 -20 510 -2 58 14 115 69 148
143 l24 54 68 -67 c84 -83 142 -115 275 -149 139 -36 333 -37 482 -4 226 51
341 105 536 249 16 12 22 8 49 -31 74 -108 189 -180 346 -215 184 -42 333 -37
552 18 201 51 346 128 485 259 38 35 70 62 72 60 1 -2 8 -29 15 -60 23 -109
142 -228 264 -264 108 -32 228 -47 322 -40 104 8 291 53 368 88 l53 24 33 -28
c18 -15 53 -32 76 -38 66 -17 451 -14 508 3 40 12 53 12 97 -1 39 -11 100 -14
282 -11 201 3 238 5 270 21 33 17 39 17 65 3 39 -20 174 -53 249 -61 133 -15
394 49 529 130 l58 35 15 -22 c33 -48 82 -86 126 -97 60 -15 443 -15 503 1 58
14 115 69 148 143 l24 54 68 -67 c84 -83 142 -115 275 -149 139 -36 333 -37
482 -4 195 45 312 93 447 186 l77 52 30 -43 c81 -114 254 -189 497 -214 207
-21 523 33 695 120 120 60 251 181 317 292 19 30 42 92 54 142 19 77 20 95 10
139 -9 40 -9 53 0 56 7 2 29 19 50 39 47 42 90 129 118 239 39 152 22 265 -59
399 -27 44 -63 112 -80 150 -61 136 -75 160 -130 214 -71 70 -133 103 -251
135 -193 51 -376 52 -588 5 -178 -40 -266 -77 -376 -160 l-67 -50 -18 22 c-11
13 -19 26 -20 31 0 13 -124 99 -175 122 -27 12 -93 33 -145 45 -119 29 -305
32 -420 6 -97 -21 -97 -21 -103 14 -4 16 -29 69 -56 117 -27 48 -68 127 -91
176 -72 151 -98 160 -426 155 -256 -3 -266 -6 -324 -75 -18 -22 -75 -138 -131
-268 -55 -126 -109 -249 -119 -271 l-18 -42 -58 57 c-78 74 -143 107 -264 135
-91 20 -102 25 -116 52 -9 16 -21 36 -28 44 -24 28 -104 185 -117 230 -8 26
-29 60 -50 81 -54 54 -101 62 -369 57 -212 -3 -227 -4 -263 -26 l-39 -22 -29
21 c-40 28 -160 59 -233 59 -142 0 -298 -60 -395 -153 -95 -92 -161 -240 -161
-363 0 -61 -14 -80 -41 -55 -11 10 -32 24 -47 32 -15 7 -40 23 -57 35 -16 12
-49 27 -71 33 l-42 11 15 52 c32 109 -27 220 -130 246 -60 16 -374 16 -434 0
-72 -18 -108 -63 -174 -213 l-56 -130 -64 -2 c-35 -1 -95 -7 -132 -14 -61 -10
-73 -16 -116 -59 l-47 -47 -30 24 c-136 110 -435 156 -679 103 -222 -48 -334
-93 -480 -194 l-93 -64 -38 54 c-98 144 -307 227 -564 227 -79 0 -153 -6 -200
-17 -97 -21 -97 -21 -103 14 -4 16 -29 69 -56 117 -27 48 -68 127 -91 176 -47
98 -79 129 -151 147 -62 16 -495 10 -525 -7 -16 -9 -31 -9 -72 3 -78 23 -503
17 -548 -8 -64 -35 -96 -91 -224 -386 l-125 -290 -28 39 c-36 49 -141 125
-207 150 -175 67 -418 82 -620 39 -121 -26 -249 -64 -302 -91 l-37 -19 -20 33
c-11 18 -29 41 -40 51 -11 10 -27 49 -37 88 -32 131 -144 266 -284 342 -28 15
-103 41 -168 58 -99 25 -140 31 -267 34 -99 2 -180 -2 -238 -11z m467 -382
c134 -30 239 -98 292 -189 23 -39 25 -51 19 -102 -7 -58 -59 -230 -75 -246 -7
-7 -314 -66 -347 -66 -7 0 -17 18 -23 40 -6 21 -15 42 -20 45 -6 4 -7 23 -4
45 13 79 -40 164 -126 202 -65 29 -214 36 -312 14 -198 -44 -355 -171 -453
-366 -69 -137 -91 -262 -60 -337 8 -19 15 -59 15 -88 0 -83 41 -152 110 -187
65 -33 181 -52 260 -42 167 19 298 81 413 197 l78 78 97 -32 c53 -17 102 -36
107 -41 13 -12 -168 -190 -252 -246 -133 -90 -302 -161 -473 -198 -119 -26
-416 -27 -510 -1 -148 40 -270 128 -305 221 -15 40 -16 55 -6 128 17 115 70
271 141 413 258 514 721 802 1254 779 60 -2 141 -12 180 -21z m7819 16 c47
-13 47 -29 3 -95 -66 -98 -178 -149 -317 -142 -97 4 -107 12 -81 65 20 39 101
121 140 142 65 35 186 50 255 30z m-5285 -34 c-2 -8 -147 -346 -323 -750
l-320 -734 -148 -1 -147 0 13 33 c80 188 632 1445 639 1455 8 8 50 12 150 12
118 0 139 -2 136 -15z m610 0 c-2 -8 -147 -346 -323 -750 l-320 -734 -148 -1
-147 0 13 33 c80 188 632 1445 639 1455 8 8 50 12 150 12 118 0 139 -2 136
-15z m5282 6 c0 -33 -204 -467 -301 -644 -28 -49 -47 -92 -44 -95 4 -4 11 1
16 11 24 43 132 176 179 222 63 60 61 49 -12 -100 -37 -74 -65 -115 -108 -157
-100 -98 -145 -231 -105 -309 12 -22 18 -53 16 -89 -4 -109 53 -152 209 -158
112 -5 182 9 269 51 154 75 260 265 205 368 -12 22 -19 55 -19 94 0 76 -20
110 -83 138 -57 25 -186 34 -262 18 -29 -6 -54 -10 -56 -8 -9 8 149 122 211
152 105 51 190 68 310 62 130 -6 184 -26 252 -92 47 -45 53 -56 53 -92 0 -22
-11 -80 -25 -128 -56 -194 -157 -361 -304 -505 -112 -109 -216 -176 -348 -223
-83 -30 -96 -32 -233 -32 -132 0 -149 2 -192 24 -26 13 -62 39 -79 59 -26 29
-30 41 -26 69 5 28 3 33 -11 31 -15 -3 -17 8 -17 85 0 49 -4 86 -9 84 -5 -2
-35 -76 -65 -165 l-56 -162 -153 0 -152 0 13 33 c80 188 632 1445 639 1455 13
15 288 18 288 3z m1588 -6 c-2 -8 -147 -346 -323 -750 l-320 -734 -148 -1
-147 0 13 33 c80 188 632 1445 639 1455 8 8 50 12 150 12 118 0 139 -2 136
-15z m-3368 -110 c0 -10 -38 -79 -69 -125 -43 -63 -41 -70 24 -70 30 0 55 -2
55 -5 0 -10 -29 -62 -55 -101 -43 -64 -43 -64 135 -64 90 0 160 -4 160 -9 0
-5 -16 -46 -36 -90 l-37 -81 -207 0 -206 0 -82 -188 c-45 -104 -84 -207 -88
-230 -6 -35 -3 -44 21 -68 25 -25 26 -30 16 -64 -17 -56 -14 -78 15 -107 23
-23 31 -25 93 -21 83 4 140 37 171 98 l20 40 83 0 c124 0 125 -5 26 -103 -93
-92 -169 -140 -294 -184 -75 -26 -90 -28 -250 -28 -169 0 -170 0 -230 30 -32
17 -67 41 -77 55 -18 24 -17 27 1 96 11 39 61 163 111 277 49 114 90 212 90
217 0 6 -20 10 -45 10 -25 0 -45 4 -45 9 0 5 14 39 30 76 17 37 30 71 30 76 0
5 -25 9 -54 9 l-55 0 39 88 39 87 108 6 c177 10 209 35 302 248 l54 121 103 0
c57 0 104 -2 104 -5z m1025 -225 c-9 -16 -27 -33 -41 -36 -47 -12 -168 1 -199
22 l-29 19 113 7 c62 3 115 9 118 12 4 3 17 6 30 6 23 0 23 -1 8 -30z m-6281
-115 c129 -24 254 -109 273 -183 9 -38 -31 -183 -80 -286 -62 -130 -116 -207
-216 -306 -173 -172 -383 -267 -641 -290 -228 -20 -404 20 -509 115 -57 52
-65 78 -48 161 64 304 306 597 595 719 78 33 215 71 282 78 90 10 275 6 344
-8z m2689 0 c84 -18 179 -67 218 -114 25 -30 29 -42 24 -71 -10 -52 -48 -140
-88 -203 l-37 -57 -129 0 -128 0 -6 29 c-4 16 -16 38 -27 49 -19 18 -20 23 -8
66 14 55 3 84 -45 120 -25 18 -42 21 -140 21 -93 -1 -122 -5 -170 -24 -68 -27
-147 -88 -196 -151 l-34 -45 94 -5 94 -5 -49 -32 c-42 -28 -59 -33 -108 -33
-54 0 -59 -2 -68 -26 -15 -37 -12 -115 4 -147 9 -15 15 -52 14 -85 -2 -114 54
-162 197 -170 141 -8 269 36 349 117 l39 40 59 -31 c32 -17 58 -36 58 -42 -1
-20 -134 -116 -225 -161 -174 -85 -373 -123 -553 -105 -153 16 -255 63 -314
145 -26 36 -29 45 -23 90 19 140 105 326 211 457 162 198 424 347 669 381 72
10 255 6 318 -8z m1388 1 c86 -19 160 -56 210 -108 36 -38 40 -46 34 -77 -3
-20 -21 -68 -39 -107 l-34 -71 -48 -6 c-27 -3 -102 -9 -166 -13 l-117 -7 6 56
c7 68 -16 106 -77 131 -127 51 -310 13 -438 -91 -91 -74 -154 -213 -132 -292
6 -22 15 -43 21 -47 7 -4 8 -24 4 -54 -15 -112 56 -179 199 -188 131 -8 248
28 343 105 l53 43 55 -31 c30 -17 57 -35 60 -39 3 -4 -16 -26 -42 -48 -109
-90 -237 -155 -382 -194 -110 -29 -361 -37 -451 -14 -90 23 -147 53 -197 102
-53 54 -60 87 -34 186 102 395 422 689 833 763 97 18 258 18 339 1z m5482 -1
c84 -18 179 -67 218 -114 25 -30 29 -42 24 -71 -10 -52 -48 -140 -88 -203
l-37 -57 -129 0 -128 0 -6 29 c-4 16 -16 38 -27 49 -19 18 -20 23 -8 66 14 55
3 84 -45 120 -25 18 -42 21 -140 21 -93 -1 -122 -5 -170 -24 -68 -27 -147 -88
-196 -151 l-34 -45 94 -5 94 -5 -49 -32 c-42 -28 -59 -33 -108 -33 -54 0 -59
-2 -68 -26 -15 -37 -12 -115 4 -147 9 -15 15 -52 14 -85 -2 -114 54 -162 197
-170 141 -8 269 36 349 117 l39 40 59 -31 c32 -17 58 -36 58 -42 -1 -20 -134
-116 -225 -161 -174 -85 -373 -123 -553 -105 -153 16 -255 63 -314 145 -26 36
-29 45 -23 90 19 140 105 326 211 457 162 198 424 347 669 381 72 10 255 6
318 -8z m1405 -19 c67 -22 93 -36 132 -74 48 -46 49 -48 40 -87 -8 -36 -56
-155 -62 -155 -2 0 -73 -9 -158 -20 -87 -11 -158 -16 -163 -11 -5 5 -4 26 3
49 16 61 -4 103 -66 133 -42 21 -63 24 -154 24 -93 0 -112 -3 -162 -27 -60
-28 -98 -73 -98 -116 0 -20 36 -51 75 -66 6 -2 0 -14 -12 -28 -13 -13 -23 -30
-23 -36 0 -17 -22 -15 -138 13 -107 26 -150 43 -171 69 -29 34 91 186 198 250
72 44 177 80 271 96 41 6 82 13 90 15 8 2 83 2 165 1 130 -3 161 -7 233 -30z
m-4875 -23 c103 -5 117 -8 112 -22 -3 -9 -99 -231 -213 -493 l-207 -477 -148
-1 -147 0 13 33 c8 17 99 226 202 462 103 237 196 450 207 474 16 37 21 42 41
36 12 -3 75 -9 140 -12z m-3152 -390 c-12 -20 -14 -14 -5 12 4 9 9 14 11 11 3
-2 0 -13 -6 -23z m7931 -60 c56 -31 51 -38 -34 -46 -63 -6 -67 -2 -48 47 12
33 21 32 82 -1z m-769 -28 c-17 -37 -17 -37 -67 5 -17 14 -17 15 15 21 71 13
71 13 52 -26z m-7543 -90 c0 -3 -35 -5 -77 -5 l-77 0 28 29 29 30 48 -25 c27
-13 49 -27 49 -29z m6870 0 c0 -3 -35 -5 -77 -5 l-77 0 28 29 29 30 48 -25
c27 -13 49 -27 49 -29z m1290 5 c88 -19 177 -50 204 -71 l26 -20 -27 -52 c-62
-124 -222 -232 -419 -283 -130 -34 -398 -45 -512 -21 -98 21 -182 61 -227 107
l-38 39 12 53 c6 29 24 75 39 103 l27 50 157 19 c87 11 161 17 164 13 4 -4 2
-25 -5 -47 -18 -60 7 -107 74 -140 45 -22 62 -25 165 -25 86 0 128 5 168 18
129 45 167 137 76 181 l-35 16 32 40 c20 24 39 39 48 36 9 -2 41 -10 71 -16z"/>
<path d="M5820 5310 c-119 -18 -232 -78 -295 -154 -76 -94 -108 -219 -68 -275
11 -17 16 -41 14 -83 -3 -77 21 -118 87 -146 148 -63 372 -17 501 103 51 47
104 143 116 206 5 27 1 50 -14 83 -13 30 -20 66 -19 99 3 110 -56 158 -207
170 -33 3 -85 1 -115 -3z"/>
</g>
</svg>
